<svg width="50" height="37" viewBox="0 0 50 37" xmlns="http://www.w3.org/2000/svg">
    <g fill="none">
        <path
            d="M48.954 17.354c0-8.746-10.91-15.877-24.367-15.877S.22 8.607.22 17.354v.93c0 9.28 9.536 16.795 24.366 16.795 14.922 0 24.37-7.514 24.37-16.793l-.002-.932z"
            fill="#2D3277" />
        <path
            d="M48.021 17.346c0 8.246-10.49 14.931-23.429 14.931-12.94 0-23.43-6.685-23.43-14.93 0-8.247 10.49-14.932 23.43-14.932s23.43 6.685 23.43 14.931z"
            fill="#009EE3" />
        <path
            d="M1.434 22.438c1.128 2.416 2.257 3.57 2.257 3.57.497-.957.534-1.468 1.076-1.666.79-.287 1.086.122 3.674.466 4.099.548 5.878.704 13.006.07 5.167-.456 1.701-5.998.519-8.964-1.183-2.965-2.419-5.599-3.118-7.104-.698-1.504-1.558-2.996-2.739-4.266-1.18-1.27-3.224-3.313-3.816-3.796-.591-.482-1.611.323-1.988.646-.376.323-2.638 1.34-1.908 2.338 0 0 .35.604.645.812.295.208-1.666-.598-1.666.558 0 1.156 1.8.967 2.311 1.183.51.215 1.021.214 1.585.51.565.296 1.492.672 2.224.645.732-.028 1.004-.403 1.377.564.372.967 1.317 3.171 1.156 5.401-.16 2.23.035 5.24.466 6.34 0 0-8.627-4.055-15.667-2.685-.002 0-.265 3.51.606 5.378z"
            fill="#FFF" />
        <path
            d="M3.8 26.728l-.415-.423c-.048-.049-1.194-1.231-2.34-3.686-.909-1.947-.658-5.446-.647-5.594l.025-.327.321-.063c5.9-1.15 12.755 1.376 15.104 2.356-.293-1.508-.374-3.888-.25-5.62.144-1.988-.63-3.953-1.047-5.009l-.08-.206c-.129-.33-.205-.385-.209-.387-.08.005-.158.016-.236.033a3.5 3.5 0 01-.516.063c-.966.038-2.11-.522-2.438-.694a3.397 3.397 0 00-.822-.274 4.426 4.426 0 01-.73-.22 2.951 2.951 0 00-.508-.092c-.723-.091-2.067-.263-2.067-1.49a.999.999 0 01.353-.81c.224-.168.498-.259.779-.258l-.042-.069a1.09 1.09 0 01-.191-.856C8 2.31 9 1.699 9.662 1.295a4.27 4.27 0 00.365-.235c1.346-1.152 2.124-.99 2.54-.651.615.501 2.695 2.586 3.858 3.835 1.067 1.145 1.961 2.536 2.817 4.377l.128.274c.703 1.514 1.88 4.047 2.999 6.849.173.434.4.933.639 1.46 1.004 2.21 2.256 4.96 1.259 6.666-.479.822-1.413 1.299-2.779 1.421-7.165.64-8.96.478-13.102-.073-.772-.1-1.54-.24-2.297-.42-.675-.154-.847-.183-1.172-.068-.192.07-.265.198-.49.71-.09.204-.201.456-.352.75l-.275.538zm-1.974-4.472a15.74 15.74 0 001.767 2.961c.018-.037.033-.074.05-.11.237-.541.424-.968.981-1.172.575-.21.96-.121 1.658.037.732.174 1.473.31 2.22.407 4.069.541 5.837.697 12.911.067 1.087-.095 1.778-.422 2.113-.997.773-1.326-.376-3.851-1.299-5.88a35.792 35.792 0 01-.657-1.5c-1.108-2.78-2.282-5.295-2.979-6.805l-.129-.274c-.815-1.757-1.663-3.077-2.665-4.154-1.226-1.317-3.236-3.318-3.773-3.755-.213-.174-.79.083-1.437.639a4.53 4.53 0 01-.474.315c-.436.266-1.34.822-1.424 1.24a.234.234 0 00.057.203l.025.038c.122.212.372.574.52.678.186.114.26.346.177.548-.142.332-.485.264-.67.228-.519-.104-.84-.11-.952-.017a.194.194 0 00-.039.146c0 .36.308.51 1.316.639.249.019.494.069.73.149.195.075.396.135.6.178.353.071.696.188 1.018.348.578.303 1.411.617 2.01.596.132-.007.265-.024.396-.05.537-.092 1.014-.092 1.397.887l.08.203c.408 1.039 1.261 3.202 1.103 5.387-.16 2.223.048 5.156.437 6.154l.391 1.004-.973-.457c-.084-.039-8.315-3.855-15.074-2.712-.038.898-.076 3.416.587 4.84l.001-.01z"
            fill="#2D3277" />
        <path
            d="M8.223 4.887c.488.031.967.15 1.413.353.416.2.614.42 1.016.254.059-.025.12-.047.183-.068.929-.337.929-.337 1.588.398.534.595.96.722 1.375.492-.527-.517-1.11-1.023-1.61-1.598-.62-.712-.599-.881-.091-1.62l-.074-.109c-.172.132-.346.26-.514.397-.11.09-.211.195-.316.294-.117-.137-.274-.259-.34-.417-.075-.182-.07-.397-.208-.604l-.098 1.032-.547.064.48.201-.056.347c.559-.377.89-.591 1.106.35-.415.127-.738.183-1.164.284-.294.067-1.166-.842-1.382-1.047"
            fill="#283277" />
        <path
            d="M47.36 22.438c-1.127 2.416-2.252 3.57-2.252 3.57-.497-.957-.534-1.468-1.077-1.666-.789-.287-1.086.122-3.672.466-4.1.548-5.88.704-13.008.07-5.167-.456-1.7-5.998-.518-8.964 1.181-2.965 2.419-5.599 3.117-7.104.699-1.504 1.552-3 2.74-4.27 1.186-1.27 3.224-3.313 3.815-3.795.592-.482 1.613.322 1.989.645.376.324 2.638 1.34 1.908 2.338 0 0-.35.604-.645.813-.296.208 1.665-.598 1.665.558 0 1.156-1.802.967-2.313 1.187-.51.22-1.021.214-1.586.51-.564.296-1.49.672-2.223.645-.732-.028-1.004-.403-1.377.564s-1.317 3.171-1.156 5.401c.16 2.23-.036 5.24-.466 6.34 0 0 9.172-4.136 16.213-2.766 0-.005-.282 3.59-1.154 5.458z"
            fill="#FFF" />
        <path
            d="M44.994 26.728l-.273-.526c-.151-.291-.263-.548-.353-.75-.225-.513-.297-.64-.49-.71-.324-.118-.496-.087-1.17.068-.759.18-1.526.32-2.298.42-4.14.548-5.935.71-13.102.073-1.366-.122-2.3-.6-2.78-1.42-.995-1.711.256-4.46 1.26-6.667.24-.528.468-1.027.64-1.46 1.117-2.805 2.294-5.339 2.998-6.849l.128-.274c.854-1.842 1.75-3.232 2.816-4.377C33.533 3.006 35.613.92 36.229.42c.415-.34 1.193-.503 2.539.65.05.044.216.146.365.235.662.405 1.663 1.017 1.818 1.807.06.3-.01.611-.192.857l-.04.068c.28 0 .554.09.778.26.237.2.367.499.353.809 0 1.227-1.344 1.398-2.067 1.49a2.951 2.951 0 00-.507.091 4.442 4.442 0 01-.73.221 3.418 3.418 0 00-.823.274c-.327.173-1.472.73-2.438.694a3.515 3.515 0 01-.516-.063 1.134 1.134 0 00-.244-.03s-.074.057-.201.384l-.08.206c-.417 1.055-1.188 3.02-1.048 5.008.126 1.735.044 4.128-.252 5.637a43.45 43.45 0 014.712-1.576c5.324-1.448 8.888-1.278 10.94-.877l.377.073-.03.382c-.012.15-.298 3.694-1.193 5.61-1.146 2.455-2.292 3.637-2.34 3.686l-.416.411zm-1.48-2.916c.225 0 .449.042.66.123.557.204.745.631.981 1.172l.05.11a15.74 15.74 0 001.766-2.961c.665-1.426.98-3.963 1.078-4.93-6.776-1.109-15.482 2.768-15.57 2.808l-.96.432.382-.98c.39-.998.598-3.931.438-6.154-.158-2.183.695-4.346 1.105-5.387l.078-.202c.383-.984.86-.984 1.397-.888.13.026.263.043.396.05.599.021 1.431-.293 2.01-.596.323-.16.665-.277 1.018-.348.204-.043.405-.103.6-.178.236-.08.481-.13.73-.149 1.004-.128 1.315-.274 1.315-.64a.194.194 0 00-.039-.144c-.113-.092-.433-.092-.953.016-.183.037-.527.104-.67-.228a.446.446 0 01.178-.548c.148-.104.398-.466.52-.678l.026-.038c.05-.055.07-.13.057-.203-.084-.42-.99-.974-1.424-1.24a4.103 4.103 0 01-.474-.315c-.647-.555-1.225-.811-1.438-.639-.536.438-2.547 2.438-3.773 3.756-1.004 1.077-1.85 2.397-2.665 4.154l-.128.273c-.7 1.506-1.871 4.026-2.98 6.808-.183.456-.412.961-.656 1.499-.923 2.029-2.073 4.555-1.3 5.88.335.575 1.026.902 2.112.998 7.076.63 8.843.473 12.914-.068a21.867 21.867 0 002.219-.406c.408-.09.707-.16 1-.16z"
            fill="#2D3277" />
        <path
            d="M40.571 4.887a4.055 4.055 0 00-1.413.353c-.416.2-.614.42-1.016.254a2.694 2.694 0 00-.182-.068c-.929-.337-.929-.337-1.587.398-.535.595-.962.722-1.376.492.527-.517 1.11-1.023 1.61-1.598.62-.712.6-.881.092-1.62l.074-.109c.171.132.347.26.514.397.111.09.21.195.317.294.116-.137.274-.259.339-.417.075-.182.07-.397.209-.604l.096 1.032.548.064-.48.201.057.347c-.56-.377-.892-.591-1.107.35.415.127.739.183 1.164.284.295.067 1.166-.842 1.382-1.047"
            fill="#283277" />
    </g>
</svg>